<?xml version="1.0" standalone="no"?>
<!DOCTYPE svg PUBLIC "-//W3C//DTD SVG 20010904//EN"
 "http://www.w3.org/TR/2001/REC-SVG-20010904/DTD/svg10.dtd">
<svg version="1.0" xmlns="http://www.w3.org/2000/svg"
 width="800.000000pt" height="800.000000pt" viewBox="0 0 800.000000 800.000000"
 preserveAspectRatio="xMidYMid meet">
<metadata>
Created by potrace 1.11, written by Peter Selinger 2001-2013
</metadata>
<g transform="translate(0.000000,800.000000) scale(0.100000,-0.100000)"
fill="#000000" stroke="none">
<path d="M0 4000 l0 -4000 4000 0 4000 0 0 4000 0 4000 -4000 0 -4000 0 0
-4000z m4410 3605 c1576 -185 2846 -1357 3149 -2908 50 -256 65 -413 65 -697
0 -181 -5 -297 -18 -400 -21 -181 -69 -425 -102 -527 -27 -84 -177 -375 -252
-488 -57 -86 -187 -218 -267 -272 -225 -151 -513 -233 -770 -220 -216 12 -392
76 -542 199 -134 109 -161 156 -453 770 l-265 557 -931 1 -930 0 -333 -702
c-183 -387 -336 -706 -340 -711 -4 -4 -114 -6 -243 -5 l-236 3 1018 2150 1018
2150 57 0 57 0 895 -1925 c492 -1059 902 -1933 911 -1944 31 -33 101 -76 169
-103 60 -24 82 -27 193 -27 136 -1 186 9 331 65 183 71 289 173 394 381 234
464 280 1169 119 1818 -424 1714 -2159 2759 -3874 2334 -1612 -399 -2650
-1967 -2389 -3609 202 -1266 1144 -2291 2389 -2599 993 -246 2044 -4 2825 652
118 100 150 116 221 110 109 -9 193 -94 202 -203 7 -87 -18 -127 -142 -231
-558 -464 -1207 -743 -1936 -830 -200 -24 -600 -24 -800 0 -838 101 -1581 458
-2164 1042 -584 583 -941 1326 -1042 2164 -24 200 -24 600 0 800 101 838 458
1581 1042 2164 629 629 1455 1000 2359 1060 118 8 482 -4 615 -19z"/>
<path d="M3986 5499 c-24 -52 -189 -395 -366 -764 -177 -368 -324 -676 -327
-682 -4 -10 146 -13 732 -13 586 0 736 3 732 13 -30 69 -712 1524 -718 1531
-5 6 -27 -30 -53 -85z"/>
</g>
</svg>
